<?xml version="1.0" encoding="utf-8"?>
<!-- Generator: Adobe Illustrator 27.9.0, SVG Export Plug-In . SVG Version: 6.00 Build 0)  -->
<svg version="1.1" id="Calque_1" xmlns="http://www.w3.org/2000/svg" xmlns:xlink="http://www.w3.org/1999/xlink" x="0px" y="0px"
	 viewBox="0 0 1000 1000" style="enable-background:new 0 0 1000 1000;" xml:space="preserve">
<style type="text/css">
	.st0{fill:#C44723;}
	.st1{fill:#FFFFFF;}
	.st2{fill:#4D180E;}
	.st3{fill:#706F6F;}
	.st4{fill:#878787;}
	.st5{fill:#9D9D9C;}
</style>
<g>
	<path class="st0" d="M289.19,523.08c7.85-3.33,16.09-5,24.72-5c8.63,0,16.87,1.67,24.72,5c7.85,3.34,14.6,7.83,20.26,13.49
		c5.66,5.66,10.17,12.42,13.54,20.26c3.36,7.85,5.04,16.09,5.04,24.72c0,8.63-1.68,16.87-5.04,24.72
		c-3.36,7.85-7.88,14.6-13.54,20.26c-5.66,5.66-12.42,10.17-20.26,13.54c-7.85,3.36-16.09,5.04-24.72,5.04
		c-8.63,0-16.87-1.68-24.72-5.04c-7.85-3.36-14.6-7.87-20.26-13.54c-5.66-5.66-10.17-12.41-13.54-20.26
		c-3.36-7.85-5.04-16.09-5.04-24.72c0-8.63,1.68-16.87,5.04-24.72c3.36-7.85,7.87-14.6,13.54-20.26
		C274.59,530.91,281.34,526.42,289.19,523.08z M292.51,602.99c5.91,5.94,13.04,8.91,21.4,8.91c8.35,0,15.5-2.97,21.44-8.91
		c5.94-5.94,8.91-13.09,8.91-21.44c0-8.35-2.97-15.48-8.91-21.4c-5.94-5.91-13.09-8.87-21.44-8.87c-8.35,0-15.48,2.96-21.4,8.87
		c-5.91,5.91-8.87,13.05-8.87,21.4C283.64,589.91,286.6,597.05,292.51,602.99z"/>
	<path class="st0" d="M417.57,618.51c1.01,5.07,1.6,8.95,1.77,11.64s0.25,6.53,0.25,11.52h-36.15l1.68-120.56l34.98-0.34
		c33.18-0.34,49.77,9.67,49.77,30.01c0,11.49-4.83,20.42-14.5,26.78c-9.67,6.36-23.78,9.54-42.33,9.54v4.46h30.01
		c3.47,7.01,7.38,11.62,11.73,13.83c4.34,2.21,10.58,2.93,18.71,2.14v34.13c-5.72,0-10.72-0.34-15.01-1.01
		c-4.29-0.67-8.51-1.9-12.65-3.7c-4.15-1.79-7.83-4.25-11.06-7.36c-3.22-3.11-6.29-7.13-9.21-12.06
		c-2.91-4.93-5.61-10.85-8.07-17.74l-4.62,0.92C414.99,607.51,416.56,613.43,417.57,618.51z M429.05,569.03
		c2.44-2.52,3.66-6.08,3.66-10.68c0-8.18-4.71-12.28-14.12-12.28h-3.45l1.01,26.74h2.44C423.12,572.81,426.61,571.55,429.05,569.03z
		"/>
	<path class="st0" d="M535.87,518.75c3.64,0.22,8.27,0.59,13.87,1.09c5.6,0.5,10.71,0.92,15.3,1.26l-7.23,46.33
		c-10.59-1.29-19.32-5.44-26.19-12.44c-6.87-7.01-10.69-15.24-11.48-24.72l-4.2-0.34c-1.79,16.54-2.69,32.31-2.69,47.33v7.9
		c0,9.14,1.09,16.37,3.28,21.69c2.19,5.33,5.44,7.99,9.75,7.99c1.79,0,3.25-0.56,4.37-1.68c1.12-1.12,1.68-2.58,1.68-4.37
		c0-4.93-3-8.16-9-9.67v-26.15h43.97l1.51,30.27l-29.43-1.18v4.29c0.17,0,0.36,0.01,0.59,0.04c0.22,0.03,0.42,0.04,0.59,0.04
		c0.17,0,0.36,0.03,0.59,0.08c3.7,0.28,6.11,0.48,7.23,0.59c1.12,0.11,3.25,0.5,6.39,1.18c3.14,0.67,5.28,1.44,6.43,2.31
		c1.15,0.87,2.77,2.17,4.88,3.91c2.1,1.74,3.56,3.77,4.37,6.1c0.81,2.33,1.58,5.28,2.31,8.87c0.73,3.59,1.09,7.65,1.09,12.19h-30.18
		c0-10.03-2.75-17.54-8.24-22.53l-3.11,2.19c2.52,3.19,3.78,6.42,3.78,9.67c0,3.48-1.26,6.5-3.78,9.08
		c-2.52,2.58-6.53,3.87-12.02,3.87c-15.02,0-26.36-5.32-34.01-15.97c-7.65-10.65-11.48-25.36-11.48-44.14v-2.94
		c0-19.17,4.19-34.37,12.57-45.61c8.38-11.24,20.5-16.86,36.36-16.86C528.19,518.41,532.22,518.53,535.87,518.75z"/>
	<path class="st0" d="M581.85,521.1h72.14l0.17,27.41h-39.6v35.82h3.11l5.72-17.57l29.93,6.56c0,4.65-0.81,8.65-2.44,11.98
		c-1.63,3.34-3.78,5.82-6.47,7.44c-2.69,1.63-5.73,2.68-9.12,3.15c-3.39,0.48-6.87,0.32-10.43-0.46c-3.56-0.78-6.99-2.07-10.3-3.87
		v21.02h40.02l1.68,29.09h-76.09L581.85,521.1z"/>
	<path class="st0" d="M722.68,641.67c-5.49,1.96-11.83,2.94-19,2.94c-7.17,0-13.49-0.98-18.96-2.94c-5.47-1.96-9.77-4.62-12.91-7.99
		c-3.14-3.36-5.46-7.06-6.98-11.1c-1.51-4.04-2.27-8.35-2.27-12.95l1.01-88.53h33.55l-2.69,82.31c-0.11,3.64,0.63,6.46,2.23,8.45
		c1.6,1.99,3.94,2.98,7.02,2.98c2.97,0,5.31-1.01,7.02-3.03c1.71-2.02,2.54-4.82,2.48-8.41l-2.77-82.31h33.55l1.09,89.04
		c0,4.43-0.77,8.63-2.31,12.61c-1.54,3.98-3.9,7.64-7.06,10.97C732.5,637.06,728.17,639.71,722.68,641.67z"/>
	<path class="st0" d="M790.53,618.51c1.01,5.07,1.6,8.95,1.77,11.64c0.17,2.69,0.25,6.53,0.25,11.52h-36.15l1.68-120.56l34.98-0.34
		c33.18-0.34,49.77,9.67,49.77,30.01c0,11.49-4.83,20.42-14.5,26.78c-9.67,6.36-23.78,9.54-42.33,9.54v4.46H816
		c3.47,7.01,7.38,11.62,11.73,13.83c4.34,2.21,10.58,2.93,18.71,2.14v34.13c-5.72,0-10.72-0.34-15.01-1.01
		c-4.29-0.67-8.51-1.9-12.65-3.7c-4.15-1.79-7.83-4.25-11.06-7.36c-3.22-3.11-6.29-7.13-9.21-12.06
		c-2.91-4.93-5.61-10.85-8.07-17.74l-4.62,0.92C787.95,607.51,789.52,613.43,790.53,618.51z M802.01,569.03
		c2.44-2.52,3.66-6.08,3.66-10.68c0-8.18-4.71-12.28-14.12-12.28h-3.45l1.01,26.74h2.44C796.08,572.81,799.57,571.55,802.01,569.03z
		"/>
	<path class="st0" d="M920.26,636.33c-6.45,5.63-14.77,8.45-24.97,8.45c-3.08,0-6.61-0.34-10.59-1.01
		c-3.98-0.67-8.52-1.26-13.62-1.77c-5.1-0.5-10.87-0.62-17.32-0.34l-4.46-33.88c15.13-1.79,26.33-0.84,33.59,2.86
		c7.26,3.7,12.2,10.99,14.84,21.86l4.12-1.18c-0.56-5.44-2.23-10.92-5-16.44c-2.77-5.52-6.4-9.91-10.89-13.16l-13.37-9.84
		c-14.12-10.43-21.19-23.04-21.19-37.83c0-4.65,0.62-9.07,1.85-13.24c1.23-4.17,3.04-7.96,5.42-11.35c2.38-3.39,5.55-6.08,9.5-8.07
		c3.95-1.99,8.45-2.98,13.49-2.98c4.04,0,9.46,0.56,16.27,1.68c6.81,1.12,13.8,1.46,20.98,1.01l7.57,29.68
		c-7.29,2.24-13.8,3.4-19.55,3.49c-5.75,0.08-10.62-0.87-14.63-2.86c-4.01-1.99-7.29-4.79-9.84-8.41
		c-2.55-3.62-4.47-8.03-5.76-13.24l-3.45,1.18c0.39,3.31,1.16,6.67,2.31,10.09c1.15,3.42,3.14,7.16,5.97,11.22
		c2.83,4.06,6.26,7.41,10.3,10.05l14.12,9.5c15.97,10.71,23.96,24.86,23.96,42.46C929.93,623.34,926.7,630.7,920.26,636.33z"/>
</g>
<path class="st0" d="M223.81,619.26c0,0.83-0.12,1.58-0.35,2.23c-0.23,0.66-0.55,1.22-0.96,1.68s-0.93,0.87-1.59,1.24
	c-0.66,0.36-1.34,0.66-2.04,0.9c-0.7,0.23-1.55,0.47-2.53,0.7l0.29,1.03c1.2-0.17,2.3-0.12,3.32,0.15c1.02,0.27,1.86,0.7,2.53,1.3
	c0.67,0.6,1.19,1.31,1.56,2.14c0.37,0.83,0.56,1.71,0.56,2.66c0,1.05-0.16,2.04-0.47,2.95c-0.31,0.92-0.77,1.74-1.38,2.48
	c-0.61,0.73-1.44,1.32-2.48,1.74s-2.23,0.64-3.57,0.64l-11.54-0.08l0.39-27.96h8.79C220.66,613.06,223.81,615.13,223.81,619.26z
	 M212.52,618.46l0.2,5.99h0.16c0.96,0,1.7-0.28,2.22-0.84c0.52-0.56,0.78-1.37,0.78-2.44c0-1.81-1-2.71-3-2.71H212.52z
	 M212.91,628.83l0.23,6.59h0.17c1.07,0,1.88-0.31,2.44-0.92c0.56-0.61,0.84-1.5,0.84-2.67c0-1.05-0.27-1.82-0.82-2.29
	c-0.55-0.47-1.36-0.71-2.46-0.71H212.91z"/>
<path class="st0" d="M138.32,535.23l-3.33-14.12h-8.58l-22.62,96.1l-4.29-0.5c2.19-15.58,3.68-26.76,4.5-33.55
	c0.81-6.78,1.47-15.48,1.98-26.11c0.5-10.62,0.59-22.6,0.25-35.94H70.07L82.1,641.84h39.6l6.73-48.76h4.29l0.6,4.33
	C141.43,578.06,135.64,555.92,138.32,535.23z"/>
<g>
	<path class="st1" d="M191.01,558.25c-7.53,7.15-15.91,13.41-23.97,20.1c17.16-1.54,34.61-15.67,50.55-40.88
		c-1.89-0.61-3.79-1.17-5.7-1.7C204.92,543.38,198.38,551.25,191.01,558.25z"/>
	<path class="st1" d="M158.92,592.46c-7.53,7.15-15.91,13.41-23.97,20.1c17.16-1.54,34.61-15.67,50.55-40.88
		c-1.89-0.61-3.79-1.17-5.7-1.7C172.82,577.58,166.29,585.46,158.92,592.46z"/>
	<path class="st1" d="M133.19,622.42c-7.53,7.15-15.91,13.41-23.97,20.1c17.16-1.54,34.61-15.67,50.55-40.88
		c-1.89-0.61-3.79-1.17-5.7-1.7C147.09,607.55,140.55,615.42,133.19,622.42z"/>
	<path class="st1" d="M333.62,470.42c-9.8,6.49-22.26,3.14-27.55-7.33c-4.24-8.39-3.41-16.98-0.2-25.2
		c3.48-8.9,8.11-17.34,11.87-26.14c4.91-11.49,7.84-23.29,1.97-35.37c-5.39-11.09-16.38-15.18-27.09-21.49
		c1.91,8.12,3.04,15.45-0.84,21.82c-9.96,16.38-19.64,33.02-30.88,48.5c-12.43,17.12-26.44,33.09-39.85,49.5
		c-8.96,10.96-9.47,17.45-1.84,28.56c-3.19,2.84-6.44,5.65-9.59,8.56c-5.14,4.75-6.02,11.79-2.17,17.68
		c1.23,1.88,2.81,3.53,4.75,5.92c-0.1,0.11-0.21,0.23-0.31,0.34c1.91,0.53,3.81,1.09,5.7,1.7c0.15-0.24,0.3-0.47,0.45-0.71
		c8.74,0.92,15.47-2.59,20.15-8.48c-5.24,1.07-10.97,2.79-16.81,3.24c-4.16,0.32-7.63-2.24-9.3-6.45
		c-1.64-4.15-0.06-7.44,2.67-10.57c4.85-5.56,9.57-11.24,14.35-16.86c-0.23-0.25-0.47-0.5-0.7-0.75c-2.11,1.4-4.23,2.79-6.32,4.17
		c-5.11-3.14-7.09-8.61-4.22-13.85c2.35-4.29,5.41-8.27,8.64-11.98c11.46-13.18,23.28-26.05,34.65-39.31
		c5.43-6.33,10.31-13.16,15.14-19.98c10.35-14.59,21.46-28.8,25.73-47.41c1.22,0.72,2.2,1.17,3.04,1.81
		c10.34,7.78,13.7,17.83,9.35,31.32c-2.83,8.78-6.92,17.16-10.46,25.71c-3.59,8.67-6.06,17.54-4.59,27.05
		c2.18,14.05,13.33,23.22,25.67,21.11c4.43-0.76,8.28-2.61,11.01-6.31C335.13,469.45,334.37,469.93,333.62,470.42z"/>
	<path class="st1" d="M297.67,525.22c-6.29-15.06-21.62-19.69-34.54-9.83c-5.1,3.89-19.22,20.34-24.24,26.45
		c-0.43,0.71-0.86,1.42-1.31,2.11c-0.11,2.36-0.25,4.72-0.32,7.08c0.04,0.53,0.07,1.05,0.11,1.58c1.64-1.32,3.08-2.56,4.3-3.71
		c7.03-6.35,21.02-22.73,24.79-26.22c8.92-8.25,19.95-6.72,25.45,4.06c2.74,5.38,3.24,12.05,4,18.22c0.46,3.76-0.5,7.7-0.83,11.55
		C299.74,546.35,302.13,535.91,297.67,525.22z"/>
	<path class="st1" d="M333.89,514.07c0.14-4.59,2.46-8.14,5.89-10.41c3.92-2.6,8.39-4.49,12.79-6.24c4.01-1.59,8.32-2.43,12.39-3.87
		c7.99-2.84,13.01-8.23,13.33-17.05c0.32-8.93-3.89-15.47-11.59-19.59c-11.24-6.02-22.1-3.84-32.6,2.22
		c-0.91,0.52-1.75,1.15-3.29,2.18c7.8-10.59,23.89-15.03,35.91-10.47c12.15,4.61,19.02,14.94,17.87,27.35
		c-0.8,8.62-4.83,15.43-13.07,18.7c-5.27,2.1-10.89,3.43-16.46,4.6C346.53,503.25,338.34,505.32,333.89,514.07z"/>
	<path class="st1" d="M288.86,542.15c-0.99,5.79-3.04,11.63-2.76,17.36c0.57,12.05,12.19,21.06,23.7,19.45
		c11.65-1.63,19.08-12.11,16.88-24.44c-1.19-6.68-3.58-13.15-4.6-19.84c-0.71-4.66-0.02-9.53,0.05-15.16
		c1.51,7.58,2.6,14.07,4.13,20.45c1.3,5.4,3.6,10.58,4.6,16.02c2.02,11-3.41,20.78-13.43,25.4c-9.68,4.46-20.98,2.15-27.9-5.72
		c-7.56-8.59-8.68-19.86-2.87-29.13c0.95-1.52,1.99-2.98,2.99-4.47C289.38,542.09,289.12,542.12,288.86,542.15z"/>
	<path class="st1" d="M249.27,494.62c-3.86-7.95-3.06-15.9,1.38-22.92c7.25-11.49,15.2-22.54,23.05-33.65
		c3.56-5.04,7.79-9.62,11.33-14.67c4.35-6.21,8.3-12.7,12.11-18.59c0.8,5.27-2.11,10.6-5.44,15.4
		c-9.06,13.09-18.55,25.88-27.85,38.8c-2.62,3.64-5.13,7.36-7.79,10.97C250.65,477.33,247.38,485.23,249.27,494.62z"/>
	<path class="st1" d="M335.31,546.46c7.55-14.35,22.13-24.19,25.92-40.86c0.44,0.06,0.88,0.12,1.32,0.17
		c-0.66,4.03-0.46,8.46-2.13,12.01c-5.47,11.63-13.79,21.1-24.2,28.69C336.03,546.61,335.66,546.47,335.31,546.46z"/>
	<path class="st1" d="M293.73,511.75c16.57,1.17,26.07-10.16,19.43-26.07c6.39,4.37,7.93,13.65,3.71,20.84
		C313.23,512.73,303.05,517.94,293.73,511.75z"/>
	<path class="st1" d="M231.84,529C231.84,529,231.85,529,231.84,529C231.89,528.91,231.89,528.92,231.84,529z"/>
	<path class="st1" d="M244.91,595.01c0.39-1.99,1.66-3.38,3.31-4.13c1.9-0.86,3.98-1.36,6.03-1.81c1.87-0.41,3.81-0.47,5.69-0.81
		c3.69-0.67,6.27-2.66,7.04-6.49c0.78-3.88-0.59-7.03-3.66-9.38c-4.48-3.43-9.38-3.25-14.4-1.36c-0.43,0.16-0.85,0.38-1.59,0.72
		c4.16-4.07,11.51-4.86,16.43-2.01c4.98,2.88,7.24,7.88,5.85,13.22c-0.96,3.71-3.21,6.39-7.04,7.23c-2.45,0.54-5,0.72-7.52,0.83
		C251.2,591.19,247.48,591.5,244.91,595.01z"/>
	<path class="st1" d="M221.25,604.44c-0.85,2.46-2.16,4.86-2.45,7.38c-0.61,5.3,3.82,10.07,8.96,10.19c5.21,0.12,9.2-3.93,9.12-9.47
		c-0.04-3-0.62-6-0.59-8.99c0.02-2.08,0.67-4.16,1.11-6.62c0.12,3.42,0.13,6.33,0.34,9.23c0.18,2.45,0.82,4.88,0.86,7.32
		c0.1,4.95-2.97,8.83-7.68,10.13c-4.55,1.26-9.31-0.56-11.77-4.49c-2.69-4.29-2.37-9.29,0.83-12.93c0.52-0.6,1.08-1.16,1.63-1.74
		C221.48,604.46,221.36,604.45,221.25,604.44z"/>
	<path class="st1" d="M241.22,609.65c4.32-5.73,11.39-8.98,14.23-15.99c0.19,0.06,0.38,0.11,0.56,0.17
		c-0.57,1.71-0.8,3.66-1.79,5.09c-3.22,4.69-7.53,8.23-12.62,10.8C241.53,609.76,241.37,609.68,241.22,609.65z"/>
	<path class="st1" d="M225.54,591.52c7.15,1.69,12.11-2.57,10.35-10c2.48,2.36,2.49,6.53,0.13,9.37
		C233.99,593.34,229.17,594.89,225.54,591.52z"/>
	<path class="st1" d="M223.18,593.83c-6.14-9.67-17.28-11.05-25.04-2.7c-3.06,3.3-10.88,16.34-13.62,21.16
		c-0.21,0.55-0.42,1.08-0.65,1.62c0.2,1.64,0.39,3.29,0.62,4.93c0.09,0.36,0.17,0.72,0.26,1.08c0.98-1.1,1.83-2.13,2.53-3.08
		c4.11-5.22,11.83-18.2,14.03-21.07c5.19-6.76,13-7.01,18.07-0.21c2.53,3.39,3.67,7.94,4.93,12.12c0.77,2.54,0.56,5.38,0.8,8.08
		C227.12,608.19,227.54,600.69,223.18,593.83z"/>
	<path class="st1" d="M185.06,619.57c0,0-0.04,0.01-0.08,0.06c-1.46,2.23-30.11,23.09-74.51,23.72c0,0,66.86-15.23,74.9-32.55"/>
	<path class="st1" d="M237.59,543.96c0,0-8.29,36.57,13.89,32.1c0,0-13.52,0.1-11.11-15.42c0.05-0.31,0.1-0.62,0.16-0.95
		c0.88-4.64,4.41-13.03,5.52-15.06C248.89,539.45,237.59,543.96,237.59,543.96z"/>
</g>
<path class="st0" d="M154.91,521.1c-0.45,17.99-0.22,32.52,0.67,43.59c0.9,11.07,2.69,26.25,5.38,45.53
	c0.39,2.52,0.67,4.46,0.84,5.8l-4.29,0.5l-19.2-81.3c-2.68,20.69,3.11,42.83-5.01,62.18l6.13,44.43h39.6l12.11-120.73H154.91z"/>
<path class="st0" d="M186.22,613.06h16.73l0.04,6.36h-9.18v8.31h0.72l1.33-4.08l6.94,1.52c0,1.08-0.19,2.01-0.57,2.78
	c-0.38,0.77-0.88,1.35-1.5,1.73c-0.62,0.38-1.33,0.62-2.12,0.73c-0.79,0.11-1.59,0.07-2.42-0.11c-0.83-0.18-1.62-0.48-2.39-0.9v4.87
	h9.28l0.39,6.75h-17.65L186.22,613.06z"/>
<path class="st0" d="M137.87,533.34l1.1,4.67c0,0,2.3,67.4-5.06,63.79l-1.2-8.73L137.87,533.34z"/>
</svg>
